<svg width="156" height="48" viewBox="0 0 156 48" fill="none" xmlns="http://www.w3.org/2000/svg">
<g filter="url(#filter0_d_1_605)">
<path d="M61.6049 17.3896C61.2583 16.751 60.7565 16.2676 60.0997 15.9392C59.4611 15.5926 58.704 15.4192 57.8283 15.4192C56.3139 15.4192 55.1008 15.921 54.1885 16.9244C53.2762 17.9096 52.8202 19.2324 52.8202 20.8926C52.8202 22.6623 53.2946 24.0489 54.2432 25.0523C55.2102 26.0375 56.5329 26.5301 58.2114 26.5301C59.3608 26.5301 60.3278 26.2382 61.1123 25.6544C61.9151 25.0705 62.4988 24.2313 62.8638 23.1366H56.9252V19.6884H67.1056V24.0398C66.759 25.2074 66.166 26.293 65.3268 27.2964C64.5058 28.2998 63.4567 29.1118 62.1796 29.732C60.9025 30.3523 59.4611 30.6625 57.8556 30.6625C55.9582 30.6625 54.2614 30.252 52.7654 29.431C51.2876 28.5918 50.1291 27.4332 49.2899 25.9554C48.4688 24.4776 48.0583 22.79 48.0583 20.8926C48.0583 18.9951 48.4688 17.3075 49.2899 15.8297C50.1291 14.3337 51.2876 13.1752 52.7654 12.3542C54.2432 11.5149 55.9308 11.0953 57.8283 11.0953C60.1271 11.0953 62.061 11.6518 63.63 12.7647C65.2173 13.8775 66.2664 15.4192 66.7772 17.3896H61.6049ZM74.3775 17.8001C74.9248 16.9609 75.609 16.3041 76.43 15.8297C77.251 15.3371 78.1632 15.0908 79.1666 15.0908V20.0442H77.8804C76.7128 20.0442 75.8371 20.2997 75.2532 20.8105C74.6693 21.3031 74.3775 22.1788 74.3775 23.4377V30.5257H69.6978V15.255H74.3775V17.8001ZM88.3546 30.7446C86.8585 30.7446 85.5085 30.4254 84.3043 29.7868C83.1184 29.1482 82.1788 28.236 81.4856 27.0501C80.8104 25.8642 80.473 24.4776 80.473 22.8903C80.473 21.3213 80.8196 19.9439 81.5129 18.758C82.2061 17.5538 83.1549 16.6325 84.3591 15.9939C85.5632 15.3553 86.9132 15.0361 88.4093 15.0361C89.9054 15.0361 91.2555 15.3553 92.4596 15.9939C93.6638 16.6325 94.6124 17.5538 95.3058 18.758C95.999 19.9439 96.3457 21.3213 96.3457 22.8903C96.3457 24.4594 95.9899 25.846 95.2784 27.0501C94.5851 28.236 93.6272 29.1482 92.4049 29.7868C91.2008 30.4254 89.8506 30.7446 88.3546 30.7446ZM88.3546 26.6943C89.2486 26.6943 90.0057 26.3659 90.6261 25.7091C91.2645 25.0523 91.5839 24.1127 91.5839 22.8903C91.5839 21.668 91.2737 20.7284 90.6534 20.0716C90.0513 19.4148 89.3033 19.0864 88.4093 19.0864C87.4971 19.0864 86.74 19.4148 86.1379 20.0716C85.5358 20.7102 85.2348 21.6497 85.2348 22.8903C85.2348 24.1127 85.5267 25.0523 86.1105 25.7091C86.7126 26.3659 87.4606 26.6943 88.3546 26.6943ZM120.749 15.255L116.616 30.5257H111.444L109.036 20.6189L106.546 30.5257H101.401L97.2411 15.255H101.921L104.083 26.1744L106.655 15.255H111.608L114.208 26.1196L116.343 15.255H120.749ZM130.196 19.1411H127.679V30.5257H122.999V19.1411H121.302V15.255H122.999V14.8172C122.999 12.938 123.537 11.5149 124.614 10.5479C125.69 9.56275 127.268 9.07014 129.348 9.07014C129.694 9.07014 129.95 9.07927 130.114 9.09751V13.0657C129.221 13.011 128.591 13.1386 128.226 13.4488C127.861 13.759 127.679 14.3154 127.679 15.1182V15.255H130.196V19.1411ZM147.994 15.255L138.416 37.7779H133.38L136.883 30.0057L130.671 15.255H135.898L139.429 24.806L142.931 15.255H147.994Z" fill="white"/>
<path d="M27.1565 12.632C27.1565 8.5628 30.4552 5.26406 34.5244 5.26406H41.8924V12.632C41.8924 16.7013 38.5937 20 34.5244 20C30.4552 20 27.1565 16.7013 27.1565 12.632Z" fill="#FF6D35"/>
<path d="M34.5243 37.6771C30.4551 37.6771 27.1564 34.3784 27.1564 30.3092V22.9412H34.5243C38.5936 22.9412 41.8923 26.2399 41.8923 30.3092C41.8923 34.3784 38.5936 37.6771 34.5243 37.6771Z" fill="#5CC97B"/>
<path d="M24.8348 20.6522C24.8348 12.4754 18.7086 5.84694 11.1515 5.84694V30.0214C11.1515 34.1097 14.2146 37.424 17.9932 37.424C21.7718 37.424 24.8348 34.1097 24.8348 30.0214V20.6522Z" fill="#3D96F4"/>
</g>
<defs>
<filter id="filter0_d_1_605" x="0" y="0" width="155.359" height="48" filterUnits="userSpaceOnUse" color-interpolation-filters="sRGB">
<feFlood flood-opacity="0" result="BackgroundImageFix"/>
<feColorMatrix in="SourceAlpha" type="matrix" values="0 0 0 0 0 0 0 0 0 0 0 0 0 0 0 0 0 0 127 0" result="hardAlpha"/>
<feOffset dy="4"/>
<feGaussianBlur stdDeviation="2"/>
<feComposite in2="hardAlpha" operator="out"/>
<feColorMatrix type="matrix" values="0 0 0 0 0 0 0 0 0 0 0 0 0 0 0 0 0 0 0.25 0"/>
<feBlend mode="normal" in2="BackgroundImageFix" result="effect1_dropShadow_1_605"/>
<feBlend mode="normal" in="SourceGraphic" in2="effect1_dropShadow_1_605" result="shape"/>
</filter>
</defs>
</svg>
